<svg height="487" viewBox="0 0 491 487" width="491" xmlns="http://www.w3.org/2000/svg"><g fill="none" fill-rule="evenodd"><rect fill="#21282c" fill-rule="nonzero" height="296" opacity=".03" rx="3" width="368" x="61" y="62"/><path d="m262.494999 313c113.499331 0 205.505001-12.091348 205.505001-27s-92.00567-27-205.505001-27c-113.489329 0-205.494999 12.091348-205.494999 27s92.00567 27 205.494999 27z" stroke="#282c30" stroke-width="2"/><path d="m146 290.124516s47.724764-20.068063 84 2.875484" stroke="#282c30" stroke-linecap="round" stroke-width="2"/><path d="m187.681162 395s-14.087419 12.370969-16.540403 19.183967c-2.462836 6.803037 28.18469-7.43055 30.01704-11.145825l1.842201-3.705315z" fill="#fff" fill-rule="nonzero" stroke="#282c30" stroke-width="2"/><path d="m209.060548 402s.625658 5.922817 10.666468 7.693948c10.04081 1.771132 5.015359-4.723017 5.015359-4.723017l-15.742375-2.970931" fill="#fff" fill-rule="nonzero"/><path d="m209.060548 402s.625658 5.922817 10.666468 7.693948c10.04081 1.771132 5.015359-4.723017 5.015359-4.723017l-15.742375-2.970931" stroke="#282c30" stroke-width="2"/><path d="m61.496 209.213247-3.11 8.07" stroke="#21282c" stroke-linecap="round" stroke-linejoin="round" stroke-width="2"/><path d="m465 286.505003c0 14.078281-88.200442 25.494997-196.994997 25.494997-37.485688 0-72.53971-1.350795-102.370152-3.712184-56.748889-4.452619-94.634851-12.54738-94.634851-21.782813 0-14.088287 88.200442-25.505003 197.005003-25.505003 108.804562 0 196.994997 11.416716 196.994997 25.505003z" fill="#fff" fill-rule="nonzero"/><path d="m253.00501 439c35.339021 0 63.99499-5.148051 63.99499-11.505037 0-6.346912-28.655969-11.494963-63.99499-11.494963-35.349041 0-64.00501 5.148051-64.00501 11.494963 0 6.356986 28.655969 11.505037 64.00501 11.505037z" fill="#fff" fill-rule="nonzero" stroke="#282c30" stroke-width="2"/><path d="m157 297s74.182209 8.068539 168 3.706396" stroke="#282c30" stroke-linecap="round" stroke-width="2"/><path d="m100 403.277471 22.140632-39.571691c.457123-3.813655 2.931547 8.470329 1.321681 21.396613-4.581163 37.042636-8.854266 29.20457-8.854266 29.20457z" fill="#d7d7d7" fill-rule="nonzero" stroke="#282c30" stroke-width="2"/><path d="m401.5 487c35.622972 0 64.5-4.254787 64.5-9.5s-28.877028-9.5-64.5-9.5-64.5 4.254787-64.5 9.5 28.877028 9.5 64.5 9.5zm-331.9985054-27c35.6221474 0 64.4985054-4.257052 64.4985054-9.505056s-28.876358-9.494944-64.4985054-9.494944c-35.6231433 0-64.5014946 4.24694-64.5014946 9.494944s28.8783513 9.505056 64.5014946 9.505056z" fill="#cfd0d2" fill-rule="nonzero"/><path d="m304.513667 217.676231-22.797924 15.393518c-1.788466 1.211852-2.250654 3.635555-1.044946 5.418278l24.375391 35.794687c1.205707 1.792739 3.647265 2.253443 5.435732 1.041592l22.797923-15.393519c1.788467-1.211851 2.260702-3.635554 1.044947-5.418278l-24.365344-35.804702c-1.215755-1.782724-3.647265-2.243428-5.445779-1.031576z" fill="#fff" fill-rule="nonzero" stroke="#282c30" stroke-width="2"/><path d="m329 256-22-33-21 14 22 33z" fill="#0ce79a" fill-rule="nonzero"/><path d="m321.084758 244.610749c1.395139-3.358615 6.708537-7.833418 13.88212-7.602136 7.173583.241338 10.033122 2.242429 10.033122 2.242429l-7.658418 8.507152s-8.341146 5.912773-10.735638 5.178704c-2.384598-.724013 6.827272-6.415559 6.827272-6.415559s-7.806838.261449-11.398576 2.936274c-3.591739 2.674826-1.434717-3.720622-.949882-4.846864z" fill="#fff" fill-rule="nonzero" stroke="#282c30" stroke-linejoin="round" stroke-width="2"/><path d="m398.34673 459s11.080615 21.111479-24.130675 17.60754c-35.211291-3.5137 11.080615-14.123121 11.080615-14.123121z" fill="#fff" fill-rule="nonzero" stroke="#282c30" stroke-width="2"/><path d="m396.746 442.773247-1.45 17.4" stroke="#282c30" stroke-width="2"/><path d="m385.196 451.233247 1.63 10.51" stroke="#282c30" stroke-linecap="round" stroke-width="2"/><path d="m359.026 452.913247 3.15 9.19" stroke="#282c30" stroke-width="2"/><path d="m312.999553 270.42099c-.196166 2.62521-13.57469-5.470858-15.5952-5.420758-1.73607 0 1.814536 14.889549 16.595647 14.999768z" fill="#fff" fill-rule="nonzero" stroke="#282c30" stroke-width="2"/><path d="m408.157876 230.821374c-1.375863-8.994392-6.101654-18.219667-13.599111-17.808093-6.739736.351343-7.437638 1.284913-27.008793.572188-10.638015-.391497-16.769579 13.762624-39.979793 49.278426-2.462596 3.774433-16.570179 7.729556-16.570179 7.729556l1.106673 9.395927s12.273098 6.705641 29.989829-5.009153c4.925192-3.001477 8.853381-7.418366 11.276097-12.678479-3.260198 8.000592-6.091684 15.328612-2.751727 24.142313 2.891307 7.63921 7.487488 8.181283 9.032841 8.723356 8.145509 2.870978 39.770423 4.165929 45.533096-10.178922 3.838459-9.245351 6.929167-28.237973 2.971067-54.167119z" fill="#16d5ea" fill-rule="nonzero" stroke="#282c30" stroke-linejoin="round" stroke-width="2"/><path d="m362 245s-5.367925 9.231884-7 13z" fill="#fff" fill-rule="nonzero"/><path d="m362 245s-5.367925 9.231884-7 13" stroke="#282c30" stroke-linecap="round" stroke-linejoin="round" stroke-width="2"/><path d="m350 331.738536c13.138501-1.770621 5.431113-16.575811 1.876929-33.631791 9.454529 1.140399 18.96896 1.760617 28.48339 1.860652 4.143221-.030011 8.276457-.37013 12.369759-1.030361h2.42603c4.772191-6.342224 5.321293-.980344 6.599201 2.690943 2.655655 7.632676 3.244691 14.244995 3.244691 24.288516v41.124419l-6.239789 75.226375-15.454711 7.732711c-8.77564-51.478049-9.524415-99.114751-10.612634-114.059991-1.098203-14.94524-1.537484-3.711301-2.895262-11.594065" fill="#d6d6d6" fill-rule="nonzero"/><path d="m399.358465 295c4.062302 10.051126 5.641535 24.51592 5.641535 37.275434 0 12.769544-1.340858 42.491586-6.75395 109.067758l-15.24605 8.656808" stroke="#21282c" stroke-linecap="round" stroke-linejoin="round" stroke-width="2"/><path d="m376.409477 327.767859c1.249872 4.000007-.685413 23.321737-8.335837 47.830509 4.112481 29.13721 7.983051 37.655928 5.342193 75.401632l-16.540638-1.047383s-12.91198-36.897822-16.097136-52.668424c-5.876412-29.067384-.977722-54.932767 1.461543-66.982664 2.096559-10.334183 8.2552-36.578619 10.422316-36.299317l6.168721 2.962599c5.281715 2.084792 13.032934 2.124692 18.55656 1.84539 6.954931-.169577 13.869542-1.097259 20.612801-2.793023" fill="#d6d6d6" fill-rule="nonzero"/><path d="m358 450.301559 14.897235.698441c5.517127-27.31904-4.794057-72.318628-4.794057-72.318628s3.308295-16.383442 13.896822-48.681372m-13-3.722539c3.197565 3.796377 13.35513 4.653961 29-4.277461" stroke="#282c30" stroke-linecap="round" stroke-width="2"/><path d="m339.845555 170.405902c6.070995-9.579328 27.727231-29.960449 45.467021-6.613343 14.719394 19.339019 11.356687 50.572036 11.356687 50.572036l-28.834709 7.635405-14.226063-34.900416-14.014636.9419s-6.000519-7.745628.2517-17.635582z" fill="#fccb00" fill-rule="nonzero" stroke="#282c30" stroke-linejoin="round" stroke-width="2"/><path d="m342 188s7.014849 28.918091 20 21.902701" stroke="#282c30" stroke-linecap="round" stroke-width="2"/><path d="m371.345576 460s11.084506 21.120493-24.129198 17.605293c-35.213703-3.524965 11.084506-14.080329 11.084506-14.080329z" fill="#fff" fill-rule="nonzero" stroke="#282c30" stroke-width="2"/><path d="m303.416 229.393247-5.05 15.52m8.74-11.83-5.05 15.52m9.12-11.45-5.04 15.52" stroke="#282c30" stroke-linecap="round" stroke-width="2"/><path d="m217.495258 258c2.484721 0 4.504742-2.020021 4.504742-4.504742s-2.020021-4.495258-4.504742-4.495258-4.495258 2.010537-4.495258 4.495258 2.010537 4.504742 4.495258 4.504742z" stroke="#282c30" stroke-width="2"/><path d="m114.753454 197.325406s27.574467-21.90913 12.990197-14.965744c-7.475304 3.556612-12.762473 5.854423-12.762473 5.854423s-3.415867-5.554708-12.128805 4.975261c-3.0000227 3.626545-3.4455707 5.704565-2.207938 7.2431.772284.999048 4.326766 2.567554 4.326766 2.567554" fill="#fff"/><path d="m114.753454 197.325406s27.574467-21.90913 12.990197-14.965744c-7.475304 3.556612-12.762473 5.854423-12.762473 5.854423s-3.415867-5.554708-12.128805 4.975261c-3.0000227 3.626545-3.4455707 5.704565-2.207938 7.2431.772284.999048 4.326766 2.567554 4.326766 2.567554" stroke="#21282c" stroke-linecap="round" stroke-width="2"/><path d="m56 355h-3v54h3z" fill="#d6d6d6" fill-rule="nonzero"/><path d="m88.8592362 207.726352c-6.8372906 7.960552-22.3002383 10.262277-29.2462142-4.663758-5.3453385-11.528729-5.3650994-23.499711 4.0707569-28.947463 9.4358562-5.447752 19.8992822-10.78494 21.0552981 8.000757.6718725 10.553763 10.4930674 18.182625 4.1201592 25.610464z" fill="#fff" fill-rule="nonzero" stroke="#21282c" stroke-width="2"/><path d="m85 176.224724s-.3728102-19.624599-21.4920035-11.061691c-20.7675426 8.4207-17.9613903 4.733469-22.5177353 6.947839-4.1865577 2.051847-5.1296667 13.855048 4.8596311 18.75104 1.122461.548514 7.7030646-.731351 8.9827104-.47741 10.0961029 2.133109 8.3126596-6.399325 8.3126596-6.399325" fill="#fff" fill-rule="nonzero"/><path d="m85 176.224724s-.3728102-19.624599-21.4920035-11.061691c-20.7675426 8.4207-17.9613903 4.733469-22.5177353 6.947839-4.1865577 2.051847-5.1296667 13.855048 4.8596311 18.75104 1.122461.548514 7.7030646-.731351 8.9827104-.47741 10.0961029 2.133109 8.3126596-6.399325 8.3126596-6.399325" stroke="#21282c" stroke-linecap="round" stroke-width="2"/><path d="m66 184c-3.6479833-6.740217 1.1063556-8.921739-10.2960842-1.692391-8.0943368 5.126087-15.2776745-2.993479-14.6676838-7.307609" stroke="#282c30" stroke-linecap="round" stroke-linejoin="round" stroke-width="2"/><path d="m65 209.860943s-6.2290938 1.54707-13.7865243-5.679243c-7.5574305-7.216331-8.6563272-14.153192-8.0847399-14.542455 0 0-.8402735-1.347448 5.4481929-.129754 3.7133047.54896 7.4567989.768544 11.2103563.668733 1.0465682 7.326124 2.7170522 14.302909 5.212715 19.682719z" style="fill:#fff;fill-rule:nonzero;stroke:#21282c;stroke-linecap:round;stroke-linejoin:round;stroke-width:2"/><path d="m65.5887532 255.539961c-7.5070392-9.135712 42.8786788 3.051865 39.9704558-51.275303l11.481946-4.264658s13.293296 52.398628-16.473222 74.517192c-18.2845711 13.589248-31.7690652 1.431493-39.567933 2.455409z" fill="#ff8b70" fill-rule="nonzero" stroke="#282c30" stroke-width="2"/><path d="m81.2387448 306.177905c-24.8871346 7.120517-37.8898401-4.177905-37.8898401-4.177905s-15.043909 39.58967 31.0127384 38.374462c50.9603199-1.335725 48.7377199 20.969871 48.7377199 20.969871l-4.445199 52.424677 17.292423.23099s31.903771-55.286944 15.229291-86.189383c-2.481736-4.629842-6.029922-8.606887-10.345552-11.579627" fill="#d6d6d6" fill-rule="nonzero"/><path d="m81.2387448 306.177905c-24.8871346 7.120517-37.8898401-4.177905-37.8898401-4.177905s-15.043909 39.58967 31.0127384 38.374462c50.9603199-1.335725 48.7377199 20.969871 48.7377199 20.969871l-4.445199 52.424677 17.292423.23099s31.903771-55.286944 15.229291-86.189383c-2.481736-4.629842-6.029922-8.606887-10.345552-11.579627" stroke="#282c30" stroke-linecap="round" stroke-width="2"/><path d="m101 266v28h-89v-28z" fill="#f3f3f3" fill-rule="nonzero" stroke="#282c30" stroke-linejoin="round" stroke-width="2"/><path d="m90 268.001211c-.7639021-.130174-32.3351716 10.293721-27.9929912 4.455939 4.3421803-5.827768-35.3927902 5.577435-35.4711907 1.732309-.1457445-6.478636-10.5358181-2.473296-10.5358181-2.473296m75 5.361639c-4.7704591-.303702-9.5608782.283456-14.1317365 1.731104-6.5668663 2.0753-11.3373254 2.713075-25.8682635 4.191094m1 5s-9 2-15 1c-5-1-16 0-16 0m36-9.56559s-26.0740613 5.487705-37.4745986 2.847087c-5.0272995-1.206209 3.9819007-4.281497 3.9819007-4.281497" stroke="#21282c" stroke-linecap="round" stroke-width="2"/><g fill-rule="nonzero"><path d="m18.1161006 287.991858c.5490345-.060118.9410591-.561099.8770551-1.102159-.0640041-.551079-.5610353-.951864-1.1090697-.881727-.5490344.060118-.9420591.561099-.877055 1.112178.064004.55108.5600351.941845 1.1090696.871708z" fill="#21282c"/><path d="m25 295h-3v48h3z" fill="#d6d6d6"/><path d="m87 294h-8v48h8z" fill="#d6d6d6"/><path d="m94.6169119 340h-79.2358252c-2.4197048 0-4.3810867 1.950249-4.3810867 4.358209v9.293532c0 2.39801 1.9613819 4.348259 4.3810867 4.348259h79.2358252c2.4217062 0 4.3830881-1.950249 4.3830881-4.348259v-9.293532c0-2.40796-1.9613819-4.358209-4.3830881-4.358209z" fill="#fccb00" stroke="#282c30" stroke-width="2"/><path d="m62.8898736 217.186181c-23.050886-3.198805-42.9222701 35.086887-22.1660151 94.394723l48.9233034 2.419096s14.3087641-78.610622-8.9593175-91.925646c-5.6611624-2.48907-11.6541515-4.128457-17.7979708-4.888173z" fill="#ff8b70"/><path d="m133.585901 418 6.196434 10.92586s15.953578.625754 16.968083 7.975878c.278491 1.956722.248653 9.098262.248653 9.098262l-46.269356-.099326s-2.784914-11.233771 2.526315-27.562966z" fill="#fff" stroke="#282c30" stroke-width="2"/><path d="m116.326749 414.797619-1.801993 7.043651s11.024553 9.642857 6.296852 15.456349c-2.945955 3.422619-6.094381 6.656746-9.445279 9.702381l-28.376329-28.125s3.3812679-6.785714 17.574494-16.875z" fill="#fff" stroke="#282c30" stroke-width="2"/><path d="m8.779 424.144 45.827-16.144 45.634 15.134.76 6.058-46.394-10.096-46.606 10.904z" fill="#f3f3f3" stroke="#282c30" stroke-linejoin="round" stroke-width="2"/><path d="m10 450c4.970222 0 9-4.036836 9-9 0-4.972914-4.029778-9-9-9-4.97022198 0-9 4.027086-9 9 0 4.963164 4.02977802 9 9 9zm90.004873-1c4.970222 0 8.995127-4.027086 8.995127-9s-4.024905-9-8.995127-9c-4.9702222 0-9.004873 4.027086-9.004873 9s4.0346508 9 9.004873 9z" fill="#f3f3f3" stroke="#282c30" stroke-width="2"/><path d="m116.434001 297.534593s18.177585-2.39623 22.366202 2.957689c4.178523 5.343894 1.120328 14.507718 1.120328 14.507718s-18.248236-4.461599-23.920531-4.231" fill="#fff"/></g><path d="m116.434001 297.534593s18.177585-2.39623 22.366202 2.957689c4.178523 5.343894 1.120328 14.507718 1.120328 14.507718s-18.248236-4.461599-23.920531-4.231" stroke="#282c30" stroke-linecap="round" stroke-width="2"/><path d="m141.846 270.763247.89 5.33" stroke="#282c30" stroke-width="2"/><path d="m138.505062 299-18.901013-.796272-3.604049-22.203728c4.393701.765646 8.827897 1.17399 13.28234 1.225033 4.586051-.07146 9.161979-.377718 13.71766-.908566zm3.494938-28.508154c0 .818109-5.581633 1.50147-12.5 1.50147-3.428571.048124-6.846939-.163622-10.234694-.635237-1.438775-.250245-2.265306-.548615-2.265306-.866233 0-.827734 5.591837-1.491846 12.5-1.491846s12.5.712236 12.5 1.491846z" fill="#fff" stroke="#282c30" stroke-linejoin="round" stroke-width="2"/><path d="m116.066 275.793247 1.33-5.03" stroke="#282c30" stroke-linejoin="round" stroke-width="2"/><path d="m156 441h-32" stroke="#282c30" stroke-linecap="round" stroke-width="2"/><path d="m132 423.617838s-11.690773-2.005805-9.791285 1.210712c1.888994 3.216517 9.791285-1.210712 9.791285-1.210712z" fill="#fff" fill-rule="nonzero" stroke="#282c30" stroke-linecap="round" stroke-width="2"/><path d="m129.706 430.903247 3.12-7.55" stroke="#282c30" stroke-linecap="round" stroke-width="2"/><path d="m233.605808 178s29.933109 8.881378 30.379279 31.883148c.436256 22.991792-8.844098 30.116852-8.844098 30.116852l-26.819827-44.28714s-5.284647-12.833092 5.284646-17.71286z" fill="#ffb0c5" fill-rule="nonzero"/><path d="m201.566 179.323247-3.6 11.87" stroke="#282c30" stroke-linecap="round" stroke-width="2"/><path d="m220 214.59084s37.525988-6.17629 38 21.40916" stroke="#282c30" stroke-width="2"/><path d="m262 224.5008c0 20.712071-21.473314 37.202067-47.939024 37.490841-40.841402.448098-49.573081-17.177079-41.152173-39.153782 7.538717-19.666511 14.656389-35.837859 41.152173-35.837859 26.485759 0 47.939024 16.798685 47.939024 37.5008z" fill="#ffb0c5" fill-rule="nonzero"/><path d="m263.419386 223h-78.838772c-1.43034 0-2.580614 1.157642-2.580614 2.574755v48.84051c0 1.427093 1.150274 2.584735 2.580614 2.584735h78.838772c1.420338 0 2.580614-1.157642 2.580614-2.584735v-48.84051c0-1.417113-1.160276-2.574755-2.580614-2.574755z" fill="#fff" fill-rule="nonzero" stroke="#282c30" stroke-width="2"/><path d="m229 142c38-4 32 41 20 49-3 1-8-2-9-4-2-2-3-5-2-12s0-10-2-14c-1 2-2 4-4 7l-32-19s6-13 18-11c5 1 8 2 11 4z" fill="#282c30" fill-rule="nonzero" stroke="#282c30" stroke-width="2"/><path d="m200 149c-7 10-6 23 1 29s18 5 26-4c15-15 8-26 1-32-7-5-16-6-24 2" stroke="#282c30" stroke-linecap="round" stroke-width="2"/><path d="m219 179s10-5 14-2c3 3 11 10-2 13-14 3-24-3-12-11zm39 240.905014c-.169702 1.21153-.788615 2.312921-1.746931 3.073882-.958317.760961-2.166195 1.111403-3.384055 1.001264-.529071.020026-1.058141-.080101-1.547282-.280354s-.928369-.500632-1.29772-.881112c-.359369-.390494-.638878-.851075-.818562-1.351708-.169702-.500632-.239579-1.031302-.189667-1.561972v-106.905014h8.984217z" fill="#fff" fill-rule="nonzero" stroke="#282c30" stroke-width="2"/><path d="m236 212s-23.638042-17.287175-4.561727-22" stroke="#282c30" stroke-linecap="round" stroke-width="2"/><path d="m222 312.819-4.182 88.181-32.818-10.99 9.348-78.01z" fill="#f3f3f3" fill-rule="nonzero" stroke="#282c30" stroke-width="2"/><path d="m244 312.926-14.262 93.074-50.738-8.032 38.467-85.968z" fill="#f3f3f3" fill-rule="nonzero" stroke="#282c30" stroke-width="2"/><path d="m223.495177 255c2.488746 0 4.504823-2.016077 4.504823-4.504823 0-2.4791-2.016077-4.495177-4.504823-4.495177-2.4791 0-4.495177 2.016077-4.495177 4.495177 0 2.488746 2.016077 4.504823 4.495177 4.504823z" stroke="#282c30" stroke-width="2"/><path d="m63.3286741 263.832631c2.9176087 16.108296 4.8991927 25.823145 9.639062 26.760717 21.7575935 4.358716 44.6005769.628374 42.9475979 2.55339v16.856359s-36.0070749 8.128954-56.1913504 3.650549c-20.1882586-4.48838-26.2893467-32.126825-22.7951867-55.067432 4.5705883-29.982376 17.0695042-42.190769 22.1877665-16.956101" fill="#ff8b70" fill-rule="nonzero"/><path d="m63 264c3 16 5 26 10 27 10.6666667 1.333333 25 2 43 2v17s-36 8-56 4c-20-5-27-32-23-55 4-30 17-43 22-17" stroke="#282c30" stroke-linecap="round" stroke-width="2"/><path d="m83 176.076947c-2.2310406-.290995-7.5467372.086221-11 3.923053" stroke="#21282c" stroke-linecap="round" stroke-width="2"/><path d="m230 145c3.84981 2.028807 5 8.904762 5 17" stroke="#fff" stroke-linecap="round" stroke-width="2"/><path d="m170.779757 139s5.812645-53-42.28474-53c-48.0873452 0-42.2746995 53-42.2746995 53z" fill="#fffffd" fill-rule="nonzero"/><path d="m129 62v24zm-1 24c48.592402 0 42.779757 53 43 53h-85c.2203175 0-5.5923282-53 42-53z" stroke="#21282c" stroke-width="2"/><path d="m375.562474 73.1987429c-14.841873-8.2212975-19.965972-22.1357937-11.439151-31.0836707 8.536829-8.947877 27.481985-9.5351125 42.323858-1.3138151 14.831866 8.2212975 19.955965 22.1357937 11.429143 31.0836707-8.526821 8.947877-27.471977 9.5351125-42.31385 1.3138151z" fill="#0ce79a" fill-rule="nonzero"/><path d="m411 78v189m-2.004-200.7567535-27.91-17.18" stroke="#21282c" stroke-linecap="round" stroke-width="2"/><path d="m431 40c0-.55-.45-1-1-1s-1 .45-1 1zm-2 230c0 .55.45 1 1 1s1-.45 1-1zm0-230v230h2v-230z" fill="#21282c" fill-rule="nonzero"/><path d="m457.943294 38.0949787c-15.851446 6.8303105-34.344799 4.4702032-41.297188-5.2802401-6.952388-9.7404429.268164-23.17105358 16.11961-30.00136414 15.861378-6.83031057 29.617175-.27001228 36.569564 9.47043064 6.952388 9.7404428 4.469392 18.980863-11.391986 25.8111736z" fill="#0ce79a" fill-rule="nonzero"/><path d="m454.136 15.3932465-25.3 12.08" stroke="#21282c" stroke-linecap="round" stroke-width="2"/><path d="m444.556322 129.200364c-14.843146-8.220486-19.957676-22.133609-11.430123-31.0806032 8.527552-8.946994 27.474333-9.5441237 42.317479-1.3236376 14.843146 8.2204858 19.957676 22.1336088 11.430123 31.0806028-8.527552 8.956946-27.474333 9.544124-42.317479 1.323638z" fill="#0ce79a" fill-rule="nonzero"/><path d="m466.366 104.533247-24.99 11.96" stroke="#21282c" stroke-linecap="round" stroke-width="2"/></g></svg>